<svg width="451" height="474" viewBox="0 0 451 474" fill="none" xmlns="http://www.w3.org/2000/svg">
<g clip-path="url(#clip0_4793_727)">
<rect width="451" height="474" transform="matrix(-1 0 0 1 451 0)" fill="white"/>
<g clip-path="url(#clip1_4793_727)">
<path d="M301.889 -135L-162.266 81.1115L53.8452 545.266L518 329.155L301.889 -135Z" fill="white"/>
<path d="M258.575 43.8723L258.182 43.9607C258.005 44.0168 257.321 44.3603 257.234 44.4402C256.525 45.0886 255.823 46.7212 255.194 47.5461L248.708 55.6682L235.474 74.1373C233.967 76.23 231.408 78.8243 230.506 81.2092C230.269 81.837 230.206 82.5204 230.564 83.1125C231.046 83.9069 231.788 84.1598 232.639 84.3743C232.871 84.3296 233.024 84.3137 233.247 84.2007C234.877 83.3773 251.053 59.8684 253.618 56.34L258.826 49.7023C259.613 48.6725 260.509 47.715 260.966 46.488C260.906 45.82 260.803 44.955 260.288 44.4536C259.716 43.8954 259.308 43.944 258.575 43.8723Z" fill="black"/>
<path d="M-67.0209 165.136C-67.2793 165.192 -67.4934 165.282 -67.7373 165.383C-67.8242 166.33 -67.4837 167.228 -67.2274 168.128C-66.5231 170.601 -65.5063 172.977 -64.556 175.364C-58.287 191.11 -50.9393 206.856 -42.6841 221.663L-34.6905 235.32C-33.2894 237.562 -31.6422 239.687 -30.3419 241.982C-30.0509 242.495 -29.4284 243.283 -29.6726 243.847C-30.1548 244.961 -31.132 246.159 -31.8512 247.138L-35.684 252.31C-39.6996 257.741 -43.5156 263.199 -46.9611 269.017C-49.2391 272.864 -51.5028 276.894 -52.6679 281.243C-53.6158 284.779 -53.992 289.339 -51.9343 292.55C-50.4413 294.88 -47.5419 296.287 -44.8914 296.841C-27.9761 300.377 -3.11878 285.873 10.7841 276.684L15.2987 278.543L14.344 279.192C8.74941 283.151 5.48631 290.474 4.38055 297.082C3.49377 302.383 3.29485 310.29 6.96709 314.657C7.48476 315.272 8.03213 315.569 8.83918 315.611C11.1591 315.729 13.6996 313.807 15.2928 312.233L15.6391 311.879L16.5524 312.064C21.065 310.252 24.5232 306.546 27.4104 302.778C31.2945 297.708 33.2301 290.748 31.1296 284.526C30.7951 283.535 30.4605 282.516 30.0183 281.567C29.7496 280.992 29.2002 280.289 29.1693 279.67C29.147 279.221 29.8359 278.807 30.183 278.631C31.6237 277.901 33.1244 277.309 34.4654 276.395C35.8819 275.43 37.0916 274.094 38.2986 272.885C39.7431 271.327 41.4386 269.219 42.3498 267.294C43.1989 265.5 43.733 263.434 44.3498 261.545C48.7927 264.109 53.1241 265.824 58.3287 265.279C59.8532 265.119 61.2841 264.826 62.7022 264.237C64.4305 263.52 67.9321 262.145 68.9194 260.472C69.3191 259.795 69.5675 258.618 70.0851 258.083C70.4979 257.656 71.2873 257.304 71.7979 256.994C73.6467 255.872 74.8986 255.212 75.765 253.151C75.1887 251.315 73.4182 249.88 71.8242 248.877C66.9619 245.816 60.3412 245.111 54.8131 246.459C50.6004 247.486 47.0901 249.591 43.4224 251.83C43.1399 251.299 41.5852 248.422 41.651 248.107C41.6985 247.882 43.5887 246.302 43.8553 246.056C47.7554 242.456 51.6777 238.845 55.129 234.801C60.8801 228.062 66.2609 220.689 68.6562 212.04C69.5532 208.802 69.4192 205.369 67.6467 202.451C64.3417 197.01 55.7047 197.659 50.3419 198.244C47.8823 198.512 45.2664 198.807 42.8683 199.43C35.789 201.268 28.8903 204.114 22.2156 207.068C21.0234 207.596 13.2059 211.47 12.618 211.455C11.9651 211.437 -3.6845 199.634 -5.45165 198.39C-10.6153 194.757 -16.1301 191.678 -21.5558 188.464L-33.7429 181.217L-56.4194 169.721C-59.8883 168.098 -63.2931 166.099 -67.0209 165.136Z" fill="black"/>
<path d="M62.088 204.753C59.6515 202.805 56.7029 202.584 53.7232 202.619L53.9643 204.369C56.7922 204.107 59.0761 204.915 61.8107 205.277L62.088 204.753Z" fill="white"/>
<path d="M22.3679 298.174L19.2834 300.756C19.2882 302.869 18.8999 304.559 18.2616 306.55C21.0922 304.394 23.0584 300.879 24.7217 297.818C23.7964 297.717 23.2393 297.865 22.3679 298.174Z" fill="#C9E4FF"/>
<path d="M64.2776 253.699C66.4511 253.615 68.4812 253.122 70.5697 252.56C68.1719 250.637 65.5697 249.978 62.5527 249.656C56.9621 249.058 52.0862 250.806 47.7407 254.248C50.0864 254.295 52.369 253.578 54.6949 253.317C57.7702 252.973 61.2191 253.336 64.2776 253.699Z" fill="#FAA7FB"/>
<path d="M53.7232 202.619C41.0913 203.467 29.0965 208.961 17.8079 214.346C18.2001 214.815 18.3926 215.334 19.0695 215.301C19.6815 215.271 20.7031 214.718 21.2917 214.491L28.5746 211.406L36.3558 208.778C37.6658 208.326 39.0049 207.612 40.3192 207.246C41.3382 206.962 42.4515 206.918 43.4942 206.659C46.9737 205.794 50.4063 204.879 53.9643 204.369L53.7232 202.619Z" fill="#FEFDCE"/>
<path d="M37.7893 262.351C38.8361 259.921 38.8569 256.229 38.3312 253.678C37.657 250.407 36.2296 246.808 33.2437 245.006C30.5966 243.407 28.2677 244.186 25.5047 244.818C21.2958 245.781 17.45 248.206 14.2666 251.069C14.7176 251.452 14.4878 251.405 15.029 251.353C16.0918 251.249 17.244 250.619 18.2418 250.245C21.8816 248.88 25.2737 247.932 29.1913 248.114C30.5729 248.177 31.9202 248.249 33.0774 249.098C35.6007 250.948 37.226 254.734 37.534 257.807C37.6581 259.041 37.5997 260.35 37.421 261.575L37.7893 262.351Z" fill="url(#paint0_linear_4793_727)"/>
<path d="M47.7406 254.248C46.9315 254.815 45.8826 255.423 45.2373 256.168C44.6999 256.788 44.2145 257.83 44.2942 258.638C44.8611 258.627 45.2213 258.608 45.7348 258.357C47.4679 259.24 49.3141 260.355 51.1518 260.96C54.0453 261.913 58.8288 262.002 61.6907 260.976C62.3317 260.747 62.7982 260.392 63.3413 259.998C63.7829 259.679 64.2336 259.512 64.7379 259.316C63.1086 258.495 59.8162 257.071 58.9957 255.516L59.1289 254.845C60.1705 254.282 61.6348 254.402 62.765 254.584L63.4651 254.681C63.8117 254.381 63.9001 254.251 64.1397 253.89L64.2774 253.699C61.2189 253.336 57.7701 252.972 54.6948 253.317C52.3689 253.578 50.0862 254.295 47.7406 254.248Z" fill="#F50056"/>
<path d="M17.6953 280.405C12.8794 284.247 8.92805 290.877 8.1374 297.062C7.59688 301.29 7.03497 308.032 9.16811 311.808L9.60083 311.941C10.5982 311.085 11.2516 309.581 11.77 308.382L15.2391 303.43L14.53 302.816L14.5151 302.722C13.6508 302.215 12.9798 301.709 12.2779 300.993L14.3888 291.931L16.268 284.924C16.7309 283.398 17.4958 281.999 17.6953 280.405Z" fill="white"/>
<path d="M12.2775 300.992C11.8582 303.412 11.9675 305.93 11.7696 308.382L15.2388 303.43L14.5296 302.816L14.5147 302.722C13.6504 302.215 12.9794 301.709 12.2775 300.992Z" fill="#C9E4FF"/>
<path d="M24.7217 297.818C25.7643 295.775 26.388 292.985 26.3723 290.694C26.3498 287.393 24.8058 282.804 22.309 280.549C21.4368 279.761 20.3086 279.502 19.1602 279.628C18.2905 279.724 18.251 279.72 17.6946 280.405C17.4951 281.999 16.7302 283.398 16.2673 284.924L14.388 291.931L12.2772 300.992C12.979 301.709 13.6501 302.215 14.5144 302.722L14.5292 302.816L15.2384 303.43C16.4677 301.662 17.6032 299.97 18.6033 298.055C19.0693 298.935 19.1539 299.777 19.2834 300.756L22.3679 298.174C23.2393 297.865 23.7964 297.717 24.7217 297.818Z" fill="#0073E2"/>
<path d="M22.3679 298.174C21.3277 297.959 20.1372 297.91 19.1479 297.522L18.8173 297.385L18.6033 298.055C19.0693 298.935 19.1539 299.777 19.2834 300.756L22.3679 298.174Z" fill="#C9E4FF"/>
<path d="M14.3884 291.931L12.2775 300.993C12.9794 301.709 13.6504 302.215 14.5147 302.722L14.5296 302.816C14.1487 300.69 16.4251 300.302 17.3045 298.511L17.4268 298.247L17.788 298.282L18.0785 297.87C18.4166 297.248 18.3848 295.711 18.0993 295.102C17.4258 293.668 15.7904 292.527 14.3884 291.931Z" fill="#C9E4FF"/>
<path d="M-8.37962 217.123L-20.4825 220.167C-20.4615 220.978 -20.6216 222.316 -20.4193 223.075C-20.2416 223.742 -19.1813 224.897 -18.7161 225.479C-14.7968 225.32 -11.0238 224.769 -7.20649 223.855C-6.79421 223.967 -5.52422 223.571 -5.06939 223.48C0.753977 222.32 6.42942 220.561 11.8797 218.212C9.49865 216.082 7.11239 214.194 4.40811 212.48L-8.37962 217.123Z" fill="#C9E4FF"/>
<path d="M10.3131 255.123C8.10091 257.629 6.56215 259.744 5.66561 263.006C6.66323 264.732 7.64813 266.801 8.92728 268.314C10.9344 270.688 14.4974 272.333 17.44 273.154C22.1537 274.468 26.4805 273.703 30.6429 271.26C33.4077 269.637 35.3886 267.284 36.9511 264.51C35.5852 265.001 34.3174 265.412 32.8603 265.557C31.1514 265.729 28.2675 265.76 26.6186 265.378C25.6574 265.155 24.6911 264.639 23.7749 264.267C18.7013 262.207 14.4804 258.617 10.3131 255.123Z" fill="#7E0091"/>
<path d="M14.266 251.069L10.3125 255.124C14.4798 258.618 18.7007 262.207 23.7743 264.267C24.6905 264.639 25.6568 265.155 26.618 265.378C28.2669 265.76 31.1508 265.729 32.8596 265.558C34.3168 265.412 35.5845 265.001 36.9505 264.511C37.3138 263.795 37.6685 263.156 37.7887 262.351L37.4205 261.575C37.5991 260.351 37.6576 259.042 37.5334 257.807C37.2255 254.734 35.6002 250.948 33.0769 249.098C31.9197 248.249 30.5723 248.177 29.1908 248.114C25.2732 247.932 21.881 248.88 18.2413 250.245C17.2434 250.619 16.0913 251.249 15.0285 251.353C14.4873 251.405 14.717 251.452 14.266 251.069Z" fill="#E93BAA"/>
<path d="M-17.6771 247.505L-17.8485 247.895C-14.8397 251.65 -11.3032 254.956 -7.09232 257.327C-5.69428 258.115 -4.15986 258.896 -2.55328 259.12C-2.19139 259.17 -1.04696 259.386 -0.736496 259.283C-0.122769 259.077 1.0666 257.522 1.54531 256.993L7.84848 250.27C9.87733 248.203 12.1537 246.228 14.4445 244.458C18.0928 241.641 22.3524 240.399 26.8081 239.517C28.6108 239.214 30.3542 239.516 32.1497 239.742L30.0409 236.457C29.6006 235.85 27.0914 232.708 26.5704 232.59C26.247 232.516 23.6886 233.661 23.234 233.833C18.5021 235.63 13.9502 237.235 9.36128 239.44C4.00219 242.016 -1.59752 245.879 -7.34228 247.341C-10.9672 248.263 -14.0145 248.059 -17.6771 247.505Z" fill="#054A8C"/>
<path d="M-31.7944 229.535L-31.7422 229.82C-31.4147 230.991 -30.3557 232.289 -29.6224 233.258C-27.9229 235.506 -26.1395 238.225 -23.6262 239.617C-20.2143 241.505 -14.6768 242.023 -10.8622 241.447C-5.47538 240.635 0.041825 237.883 5.14707 235.996L23.708 229.936C21.4717 227.325 18.9542 224.969 16.4643 222.603C15.9679 222.132 14.6996 220.744 14.0657 220.525C13.3786 220.289 8.4096 222.633 7.55401 223.016C-2.49138 227.521 -13.9278 230.883 -25.027 230.417C-27.3151 230.32 -29.5341 229.859 -31.7944 229.535Z" fill="#FF528F"/>
<path d="M17.8077 214.346L16.8864 214.759C16.9344 215.462 17.7876 216.014 18.3274 216.478C24.5185 221.803 30.4927 227.744 35.3377 234.348C37.3231 237.055 39.0162 239.974 40.7346 242.854L47.5198 236.226C53.1436 230.338 64.2944 217.464 64.0353 209.034C63.9897 207.551 63.6013 206.095 62.4642 205.077L62.0878 204.753L61.8106 205.277C59.076 204.915 56.792 204.107 53.9642 204.369C50.4062 204.879 46.9735 205.794 43.494 206.659C42.4513 206.918 41.3381 206.962 40.3191 207.246C39.0047 207.612 37.6657 208.327 36.3557 208.778L28.5745 211.406L21.2915 214.491C20.7029 214.718 19.6813 215.271 19.0693 215.301C18.3924 215.334 18.2 214.815 17.8077 214.346Z" fill="#FDDF01"/>
<path d="M-15.2292 285.797C-13.166 285.183 -11.0245 283.929 -9.11278 282.927C-4.14978 280.325 0.817324 277.543 5.07648 273.878C3.18461 272.054 1.92947 270.306 0.754584 267.942C0.248132 266.925 -0.172738 265.87 -0.5834 264.811C-0.643285 264.656 -0.862618 263.898 -0.971267 263.792C-1.28653 263.482 -4.14307 262.999 -4.78987 262.786C-7.21463 261.99 -9.68083 260.843 -11.848 259.488C-17.4753 255.972 -21.4462 250.987 -26.0336 246.342C-28.0783 248.271 -29.155 251 -30.7177 253.302C-33.6225 257.579 -37.0067 261.609 -39.8016 265.954C-43.05 271.004 -46.4395 276.706 -47.9627 282.538C-48.3411 283.986 -48.79 285.667 -48.4212 287.147C-48.0272 288.73 -47.2469 289.851 -45.8185 290.641C-41.5992 292.974 -35.4628 292.505 -30.9478 291.24C-27.0449 290.306 -23.4362 289.109 -19.7136 287.598L-15.2292 285.797Z" fill="#F68600"/>
<path d="M115.893 47.9595C113.726 48.5404 111.291 50.0428 109.341 51.1455C103.522 54.4355 98.2454 57.8819 93.6002 62.7549C87.8475 68.7901 82.9877 75.8804 80.9884 84.0884C79.5861 89.8436 79.3872 95.6154 79.5425 101.506C79.9969 118.722 87.5299 137.231 100.18 149.095C107.888 156.323 118.077 162.758 128.569 164.715C131.723 165.304 134.914 165.318 138.106 165.208C139.311 167.928 139.973 170.908 141.021 173.697C143.381 179.98 146.637 186.365 150.406 191.916C153.457 196.41 156.855 200.635 160.211 204.902C161.459 206.489 163.218 208.216 164.167 209.971L161.092 210.269C158.29 210.68 155.341 211.967 152.764 213.112C151.625 213.619 150.379 214.109 149.605 215.12C149.258 216.265 149.56 217.29 149.781 218.432C148.235 218.632 146.731 218.483 145.188 218.584C142.063 218.789 138.67 219.712 135.682 220.632C131.49 221.923 127.533 224.164 123.801 226.425C113.328 232.773 103.461 240.887 97.4902 251.791C93.9193 258.313 92.0254 265.481 88.8621 272.162C87.8535 274.292 86.4993 276.199 85.3245 278.234C82.3079 283.456 79.6524 288.435 77.6509 294.157C73.327 306.517 70.5414 320.134 62.8442 330.97C59.7181 335.37 54.8965 338.687 50.3898 341.553C48.6994 342.627 46.7534 343.597 45.2979 344.972C45.0483 346.119 45.2018 347.354 45.8124 348.384C46.6099 349.728 48.7724 350.582 50.2231 350.997C59.4662 353.641 68.8002 354.405 77.4269 349.653C91.6788 341.802 95.8448 325.608 100.039 311.128C102.115 315.568 104.838 319.792 107.781 323.709L113.241 330.743C105.958 343.207 88.9423 345.024 92.4739 363.171C93.1489 366.638 93.9218 369.953 95.0377 373.31C95.8537 375.765 96.9411 378.249 97.5652 380.756C97.6598 381.137 97.6429 381.436 97.5639 381.816C96.8369 382.576 95.0907 382.801 94.0608 383.194C92.5319 383.778 90.909 384.494 89.5335 385.382C82.5699 389.874 81.5923 400.474 82.2077 407.945C82.3803 410.039 83.1618 413.146 82.75 415.151C82.3808 415.667 82.0518 415.96 81.5023 416.288C78.4461 418.108 75.174 419.583 72.0494 421.281C61.9588 426.764 51.7058 432.136 42.0449 438.358C40.4176 439.406 36.8982 441.283 36.494 443.16L37.0405 443.727C48.9911 446.415 119.302 415.002 143.775 403.53L160.293 384.123C163.299 382.279 166.328 380.342 169.067 378.111C169.961 377.383 170.935 376.593 171.209 375.453L170.933 375.278C170.07 374.849 168.982 375.051 168.083 375.263C163.313 376.392 158.452 378.453 153.859 380.185L141.524 386.256C137.73 388.172 133.882 390.213 129.867 391.628C131.416 387.343 133.605 383.012 136.755 379.671C141.734 374.389 148.231 371.301 154.344 367.551C168.983 358.569 183.643 346.795 191.453 331.134C193.01 328.012 194.082 324.619 195.237 321.331L206.555 320.008C213.585 318.624 220.795 316.601 227.478 314.004C234.04 311.454 240.366 308.143 246.599 304.889C260.021 297.882 273.127 289.746 283.837 278.923C286.067 276.669 287.94 273.98 289.869 271.47L297.744 260.693C300.041 257.017 302.34 253.137 303.562 248.953L303.666 248.59C304.206 252.451 304.721 256.771 304.172 260.655C304.118 261.035 304.013 261.684 303.795 262.01C303.479 262.481 302.573 262.832 302.082 263.098C301.036 263.665 300.027 264.303 299.087 265.033C295.503 267.813 292.827 272.087 292.355 276.626C292 280.034 293.271 283.47 294.56 286.562C295.98 289.971 297.59 293.243 299.364 296.482C300.397 298.368 301.639 300.881 303.06 302.486C303.681 303.186 304.751 303.566 305.67 303.609C307.678 303.703 309.506 302.118 311.024 300.968C313.668 298.965 316.249 296.941 318.683 294.684C322.613 291.04 325.662 287.014 327.997 282.179C331.538 274.849 333.271 266.183 335.384 258.345C338.087 248.325 341.641 238.26 342.055 227.793L352.425 221.708C352.908 221.545 353.147 221.695 353.554 221.926C355.462 223.007 356.781 227.76 357.368 229.902C357.393 229.994 357.559 230.688 357.551 230.704C357.472 230.86 353.506 232.719 352.895 233.093C350.474 234.574 347.358 236.783 346.008 239.317C344.031 243.029 345.126 246.477 346.25 250.218C347.249 253.546 351.352 265.091 354.455 266.574C355.179 266.921 356.028 266.917 356.761 266.583C358.809 265.645 360.811 263.935 362.695 262.67L372.067 256.196C374.6 254.453 377.239 252.861 379.48 250.735C381.345 248.967 382.884 247.007 383.875 244.625C385.539 240.626 385.207 235.926 385.26 231.656C385.339 225.392 385.446 218.911 384.457 212.707C384.097 210.448 383.466 208.384 382.596 206.267C380.054 200.088 375.19 195.11 368.98 192.594C363.719 190.464 357.464 192.338 352.265 193.824C345.963 195.626 340.042 197.918 334.029 200.501C334.153 196.846 335.386 194.296 337.389 191.259C337.497 191.096 337.941 190.335 338.075 190.261C338.401 190.081 339.622 190.105 340.016 190.084C344.223 189.865 348.113 190.484 352.278 190.757C355.86 190.991 359.462 190.637 363.045 190.619L370.914 190.815C373.223 190.824 375.415 190.594 377.72 190.96C387.179 192.461 395.033 199.232 405.071 197.015C409.973 195.932 415.64 192.185 418.297 187.876C421.518 182.648 421.659 176.806 420.329 171.011C419.666 168.123 418.371 165.575 416.942 163.001C415.06 159.613 412.206 156.239 408.76 154.349C406.085 152.883 402.755 152.384 399.803 151.717C393.7 150.338 386.723 148.502 381.548 144.871C377.857 142.282 375.742 138.053 372.88 134.686C369.416 130.608 365.382 127.943 360.904 125.148C362.899 116.02 365.753 107.031 368.342 98.053L374.987 73.9962L378.441 61.8315C378.869 60.2783 379.684 58.239 379.663 56.6609C379.647 55.4846 379.139 54.7863 378.298 54.0379C377.182 53.6561 375.982 53.4983 375.029 54.3682C373.944 55.3589 373.221 57.3206 372.531 58.6037L367.814 67.4169L360.767 80.2994L350.968 99.0863L342.584 112.575C342.218 113.135 341.135 115.181 340.636 115.489C340.57 115.53 337.286 114.93 336.87 114.871C332.4 114.232 327.929 114.26 323.43 114.573C314.761 115.176 305.47 118.855 297.72 122.588C287.975 127.282 279.314 134.352 272.744 142.963C266.964 150.54 262.911 159.587 259.792 168.522C258.371 167.593 256.653 166.713 255.008 166.285C253.213 165.817 251.439 165.7 249.597 165.552C248.746 165.483 247.42 165.533 246.781 164.911C246.495 163.627 247.326 162.475 247.91 161.385C248.964 159.415 250.525 157.061 250.923 154.844C251.237 153.092 250.902 151.149 249.796 149.714C249.312 149.086 248.657 148.614 248.167 147.996C247.717 147.43 247.435 146.744 247.023 146.15L246.879 145.95C247.226 144.814 248.221 143.655 248.893 142.659C249.745 141.395 250.471 140.047 251.175 138.697C252.486 136.182 252.753 133.436 253.924 130.975C255.455 127.756 257.718 124.652 258.982 121.337C260.248 118.014 261.947 114.931 260.363 111.44C260.109 110.878 260.311 110.866 260.601 110.327C264.43 103.207 267.81 96.2336 269.7 88.3007C271.836 79.3316 272.883 69.9822 273.599 60.8055C273.957 56.2261 273.865 51.5947 274.452 47.0294C274.847 43.9523 275.673 40.9919 276.514 38.0134C277.419 43.9731 276.626 49.9748 276.528 55.9634L274.976 96.3599C274.91 97.5542 273.864 101.197 274.468 102.028C275.046 102.824 276.117 103.14 277.035 103.323L278.013 102.628C278.525 102.131 278.588 101.675 278.638 101.008L280.523 57.783L280.716 35.5099C280.695 33.8396 280.995 32.1124 280.89 30.4588C280.824 29.4217 280.379 28.617 279.79 27.7896C279.049 27.3657 278.431 27.3041 277.59 27.2207C277.087 27.3858 276.585 27.5794 276.207 27.9659C273.779 30.4514 271.915 34.4903 270.289 37.5471L261.661 54.2633L252.605 70.4617C249.699 76.0837 247.358 81.9188 244.909 87.7432L241.804 95.5664C241.313 96.9398 240.694 98.4014 240.677 99.8777L240.51 103.319C238.461 106.103 237.85 108.761 236.979 112.06C236.425 112.47 235.538 112.46 234.857 112.597C233.512 112.866 232.133 113.28 230.854 113.771C227.071 115.223 223.514 117.636 220.028 119.704C218.021 120.894 215.793 122.25 214.043 123.802C212.819 124.887 211.764 126.159 210.506 127.207C207.931 129.352 204.97 131.445 202.01 133.019C198.564 134.85 195.599 135.684 191.788 136.267C194.531 133.275 196.788 130.387 198.438 126.633C204.22 113.471 202.832 97.7881 197.772 84.6565C191.707 68.9193 178.377 54.5668 162.899 47.7661C151.897 42.932 139.444 41.5745 127.672 44.1206C123.64 44.9927 119.73 46.4688 115.893 47.9595Z" fill="black"/>
<path d="M227.404 140.29C227.037 140.366 226.784 140.492 226.45 140.655L226.544 141.242C227.149 141.997 227.671 142.814 228.589 143.197L229.231 142.854C229.34 142.543 229.398 142.433 229.423 142.076C229.457 141.604 229.2 140.984 228.902 140.637C228.588 140.27 227.87 140.338 227.404 140.29Z" fill="#01035C"/>
<path d="M230.955 199.015L231.321 196.76C230.368 196.782 229.212 196.913 228.296 196.621L227.89 196.477L227.63 198.936C228.717 198.924 229.885 198.822 230.955 199.015Z" fill="#0073E2"/>
<path d="M157.268 166.687C156.955 168.317 156.908 169.971 157.892 171.407C158.971 172.982 160.875 173.568 162.675 173.837L163.595 173.947L160.888 171.725L159.992 170.573C159.46 170.567 159.007 170.436 158.554 170.14C157.658 169.552 157.472 167.658 157.268 166.687Z" fill="#0073E2"/>
<path d="M239.07 206.55L236.314 207.924L236.64 211.433C237.745 211.614 238.698 211.711 239.814 211.593C239.059 209.832 239.004 208.428 239.07 206.55Z" fill="#C9E4FF"/>
<path d="M240.922 123.261C238.959 124.191 237.752 124.984 236.225 126.519C235.94 127.184 235.71 127.699 235.711 128.441C236.942 126.881 240.337 125.939 242.239 125.559L242.366 124.36C241.831 124.058 241.388 123.659 240.922 123.261Z" fill="#054A8C"/>
<path d="M168.18 158.652C164.612 159.091 160.855 160.237 158.552 163.16C159.846 163.319 160.091 163.413 161.131 164.196C161.849 162.958 162.864 161.765 164.079 160.981C165.451 160.096 166.862 159.717 168.18 158.652Z" fill="#054A8C"/>
<path d="M193.519 154.687C193.228 154.753 192.962 154.811 192.695 154.95C192.119 155.249 191.313 155.694 191.079 156.324C191.539 156.884 191.717 157.327 191.956 157.997C191.563 158.054 191.028 157.014 190.475 156.698C189.713 157.248 189.288 157.687 188.844 158.519C189.265 159.053 189.915 159.226 190.527 159.471C191.652 159.074 193.233 158.821 194.191 158.148C194.548 157.896 194.558 157.692 194.576 157.273C194.614 156.368 194.14 155.328 193.519 154.687Z" fill="#C42604"/>
<path d="M158.552 163.16C157.943 164.356 157.521 165.355 157.268 166.687C157.472 167.658 157.658 169.552 158.555 170.14C159.007 170.436 159.46 170.567 159.992 170.573L160.889 171.725L160.311 170.449C159.439 168.282 160.291 166.206 161.13 164.196C160.091 163.413 159.845 163.319 158.552 163.16Z" fill="#C9E4FF"/>
<path d="M185.37 135.173C184.272 135.538 182.845 135.759 181.844 136.252L180.541 136.89L178.657 137.956C178.231 139.217 177.362 139.807 176.375 140.626C176.188 141.645 176.267 141.594 176.811 142.405C179.966 140.283 182.758 137.934 185.37 135.173Z" fill="#C9E4FF"/>
<path d="M176.494 196.73C172.756 198.454 169.029 200.381 165.105 201.637L171.623 209.02L174.119 208.052C172.176 205.512 169.202 203.374 166.731 201.358L176.216 196.896L176.494 196.73Z" fill="#C9E4FF"/>
<path d="M248.622 122.057L248.517 122.45C247.851 123.093 245.526 122.595 244.518 122.638C243.249 122.692 242.14 122.902 240.923 123.262C241.388 123.659 241.831 124.058 242.367 124.36L242.24 125.559C245.036 125.247 246.697 126.655 249.169 127.28C249.884 126.424 249.913 125.03 250.077 123.955C249.676 123.24 249.161 122.669 248.622 122.057Z" fill="#C9E4FF"/>
<path d="M207.983 198.404C205.922 199.03 203.819 199.629 201.861 200.538C200.297 201.264 198.893 202.223 197.358 202.971C195.692 203.783 192.94 204.743 191.864 206.329L206.605 201.574C206.648 201.005 206.618 200.161 206.946 199.68L207.983 198.404Z" fill="#C9E4FF"/>
<path d="M138.016 154.606C132.616 155.885 127.406 156.584 121.879 156.97C126.414 158.094 133.056 159.741 137.631 158.245C136.721 158.065 136.109 158.138 135.241 157.692C135.465 157.177 135.558 157.107 135.98 156.771C135.459 156.714 135.06 156.665 134.561 156.492C134.893 156.195 134.739 156.261 135.152 156.154C136.208 155.88 136.865 155.695 137.685 154.926L138.016 154.606Z" fill="#C9E4FF"/>
<path d="M242.597 131.934C241.063 134.439 239.675 138.289 239.381 141.194C240.019 141.687 240.091 141.882 240.921 141.845C241.799 140.057 243.2 138.59 244.138 136.834C244.653 135.87 244.87 134.788 245.095 133.727C244.424 132.99 243.434 132.478 242.597 131.934Z" fill="#FF528F"/>
<path d="M236.225 126.52C234.051 128.114 234.643 130.798 232.814 132.431L232.525 132.694C230.831 134.207 228.857 135.745 226.74 136.592C227.857 137.596 229.742 139.218 231.262 139.415C232.208 139.537 232.761 139.174 233.496 138.634C234.263 137.406 234.343 135.785 234.625 134.383C235.018 132.429 235.565 130.429 235.711 128.441C235.71 127.699 235.94 127.185 236.225 126.52Z" fill="#C9E4FF"/>
<path d="M206.902 181.693C204.278 182.526 201.948 183.438 199.146 183.358L200.569 186.718C200.689 187.028 200.873 187.823 201.055 188.016C201.282 188.256 202.452 188.676 202.815 188.816C204.943 189.642 207.783 188.535 209.858 187.891L206.902 181.693Z" fill="#C9E4FF"/>
<path d="M92.3758 284.025L92.3604 279.271C87.8903 286.485 84.6588 293.902 82.3807 302.055C83.4396 301.712 84.3874 301.279 85.3757 300.768C87.0813 296.039 89.6444 291.549 91.1149 286.757C91.2807 286.217 91.1505 285.706 91.2989 285.18C91.5284 284.362 91.6528 284.411 92.3758 284.025Z" fill="#FF528F"/>
<path d="M191.405 199.927L192.116 199.608C193.84 198.707 195.768 197.283 196.397 195.374C194.176 195.476 191.926 195.588 189.705 195.435C187.182 195.261 184.897 194.487 182.308 194.515C181.823 194.521 180.983 194.444 180.532 194.57C180.156 194.676 179.593 195.128 179.238 195.339C181.236 197.185 183.549 199.161 186.073 200.241C187.673 200.107 189.855 199.649 191.405 199.927Z" fill="#0073E2"/>
<path d="M227.89 196.477C226.407 196.087 224.854 196.113 223.329 196.091C218.131 196.017 212.973 197.043 207.983 198.404L206.946 199.68C206.619 200.161 206.648 201.005 206.605 201.574C211.478 200.488 216.445 199.696 221.422 199.281C223.493 199.109 225.56 199.175 227.63 198.937L227.89 196.477Z" fill="#0073E2"/>
<path d="M247.42 172.04C243.921 175.362 240.143 179.875 238.438 184.454C236.538 189.558 236.396 195.981 236.237 201.391L236.314 207.924L239.07 206.55L239.119 205.129L239.086 203.592C238.852 201.527 238.971 199.463 239.004 197.39C239.042 194.996 239.005 192.52 239.35 190.147C240 185.672 241.98 181.087 244.157 177.16C245.12 175.424 247.044 173.945 247.42 172.04Z" fill="#C9E4FF"/>
<path d="M239.086 203.591L237.665 202.966C237.281 203.753 237.3 204.795 237.516 205.627C238.227 205.658 238.493 205.446 239.119 205.129L239.086 203.591Z" fill="#0073E2"/>
<path d="M188.635 148.246L181.618 154.74C183.733 155.74 185.621 156.828 187.547 158.155L188.716 156.648C189.541 155.549 190.298 154.839 191.507 154.192C192.44 153.693 192.915 153.625 193.901 153.906C194.558 154.633 195.045 155.331 195.422 156.244C195.861 157.309 195.806 157.83 195.35 158.873C194.086 159.802 192.553 160.291 191.103 160.865L191.183 160.938L196.319 160.956C197.613 160.9 199.077 160.467 200.367 160.225C198.735 157.904 196.687 154.868 194.588 152.967C192.717 151.272 190.49 150.046 188.635 148.246Z" fill="white"/>
<path d="M392.225 180.272C392.181 180.953 392.145 181.15 392.429 181.759L392.814 181.994C393.008 182.142 393.178 182.467 393.323 182.66C393.572 182.991 393.465 182.874 393.89 183.079L394.13 183.096C399.577 183.599 406.114 190.125 411.491 185.984C413.339 184.56 414.545 182.275 414.819 179.965C414.92 179.117 414.929 178.248 414.794 177.405C413.78 179.128 412.616 180.339 410.804 181.25C405.104 184.116 397.879 182.131 392.225 180.272Z" fill="#C9E4FF"/>
<path d="M244.024 150.613C242.464 149.149 240.29 148.527 238.326 147.792C237.268 147.397 236.127 146.876 235.017 146.67C233.897 146.462 233.276 146.686 232.372 147.35C230.962 148.656 230.389 150.8 230.217 152.658L234.921 153.932C237.08 154.59 239.942 156.107 242.092 154.837C242.774 154.433 242.479 153.819 243.106 153.391C243.831 152.896 244.357 152.606 244.672 151.769C244.502 151.138 244.515 151.027 244.024 150.613Z" fill="#FF528F"/>
<path d="M244.024 150.613C242.464 149.149 240.29 148.527 238.325 147.792C237.268 147.397 236.126 146.876 235.016 146.67C233.896 146.462 233.276 146.686 232.371 147.35C231.489 149.217 230.948 150.436 231.115 152.558C231.627 151.192 232.14 149.104 233.17 148.082C234.763 147.92 235.461 149.091 236.872 149.453C238.065 149.759 239.218 149.262 240.393 149.549C240.951 149.685 243.393 150.929 243.727 150.878C243.857 150.858 243.925 150.701 244.024 150.613Z" fill="white"/>
<path d="M250.156 110.201C248.69 109.74 247.51 108.871 246.132 108.256C245.065 107.78 243.225 107.259 242.092 107.639L241.791 108.823L241.198 113.001C242.966 113.513 244.714 114.04 246.417 114.74C248.579 115.628 251.923 117.952 254.265 117.791C255.056 117.209 255.662 114.741 256.014 113.745C255.071 112.62 251.84 110.346 250.389 110.198L250.156 110.201Z" fill="#FF528F"/>
<path d="M250.156 110.202C248.69 109.74 247.51 108.872 246.132 108.256C245.065 107.78 243.226 107.259 242.092 107.639L241.791 108.824C243.511 109.78 245.586 109.904 247.486 110.28C248.573 110.494 249.605 110.918 250.63 111.326L250.852 111.009L250.156 110.202Z" fill="white"/>
<path d="M242.255 253.775L223.447 262.463C223.822 263.911 224.405 265.223 225.011 266.586L243.951 257.598L242.255 253.775Z" fill="white"/>
<path d="M269.767 51.2542C269.432 52.6022 268.487 53.4621 267.475 54.36C267.252 55.3299 267.21 55.7493 267.394 56.7264C267.699 58.3513 264.148 65.6677 263.456 67.5223C262.612 69.7871 262.023 72.1261 261.062 74.3483C262.442 73.9853 262.797 74.0118 264.076 74.7492L264.272 74.8728L267.633 75.7587L269.756 60.5054C270.009 58.5366 270.976 52.8119 269.767 51.2542Z" fill="#C9E4FF"/>
<path d="M219.213 141.451C217.169 146.389 213.03 149.626 208.163 151.631L202.542 153.605L205.19 157.665C209.953 155.952 214.759 153.882 218.482 150.366L223.298 145.488L223.507 145.299L219.213 141.451Z" fill="#0073E2"/>
<path d="M263.802 76.7428L262.979 74.9113L262.417 74.5914L261.849 74.8887C261.735 75.5231 261.848 75.5707 261.341 75.9968C260.447 76.7485 259.862 78.2497 259.347 79.2805C257.426 83.1236 255.994 87.1451 254.224 91.0463L249.04 102.087C249.423 102.914 250.192 103.278 251.016 103.578C251.736 103.84 252.444 104.093 253.215 104.089C255.185 97.9515 257.496 92.0411 260.055 86.1289C260.849 84.2949 261.539 82.234 262.636 80.5609C263.186 79.5015 263.465 77.9103 263.802 76.7428Z" fill="#FF528F"/>
<path d="M178.657 137.956C174.004 140.854 169.172 144.096 164.317 146.603C161.292 148.165 157.969 149.462 154.786 150.671L141.934 155.155C140.6 155.586 138.871 155.51 137.695 156.228C137.117 156.58 136.644 156.676 135.98 156.771C135.558 157.107 135.464 157.177 135.241 157.692C136.108 158.138 136.721 158.065 137.63 158.245C146.951 156.815 156.805 153.532 165.19 149.182L176.811 142.405C176.266 141.594 176.187 141.645 176.374 140.626C177.361 139.807 178.23 139.217 178.657 137.956Z" fill="#5FB0FF"/>
<path d="M264.273 74.8727L263.803 76.7428C263.465 77.9103 263.187 79.5015 262.636 80.561L253.881 104.243L257.22 105.183C258.155 103.394 259.283 101.698 260.131 99.8652C261.261 97.424 262.122 94.7896 263.038 92.2604C264.995 86.8584 266.688 81.4413 267.633 75.7585L264.273 74.8727Z" fill="#C9E4FF"/>
<path d="M378.442 217.622C377.711 223.91 376.04 229.313 370.893 233.441C369.418 234.624 367.755 235.372 365.901 235.752L365.107 235.45C365.004 235.808 364.963 235.897 364.928 236.302C364.863 237.053 365.174 237.793 365.645 238.353C366.374 239.22 367.552 239.678 368.587 240.059C369.887 240.538 371.272 241.081 372.642 241.315C374.548 241.64 376.816 241.439 378.765 241.491C379.802 236.571 379.107 230.422 378.916 225.417C378.817 222.822 378.998 220.169 378.442 217.622Z" fill="#C9E4FF"/>
<path d="M206.902 181.693C204.878 176.212 203.635 171.014 203.369 165.171L195.665 166.346C195.387 169.542 196.097 172.655 196.821 175.746C197.436 178.374 198.015 180.897 199.146 183.358C201.948 183.438 204.278 182.526 206.902 181.693Z" fill="white"/>
<path d="M179.239 195.339L176.494 196.729L176.216 196.895L166.731 201.358C169.202 203.374 172.176 205.512 174.119 208.051C180.616 206.317 185.894 203.751 191.406 199.927C189.856 199.649 187.674 200.107 186.073 200.241C183.55 199.161 181.236 197.185 179.239 195.339Z" fill="white"/>
<path d="M212.498 179.719L216.475 185.41C219.444 184.644 222.363 183.255 225.088 181.876C228.536 180.131 231.633 178.498 234.744 176.166C237.583 174.036 240.333 170.927 240.79 167.271C241.064 165.072 239.647 162.861 238.339 161.193C239.198 163.096 239.902 165.22 239.039 167.278C238.162 169.371 235.396 170.995 233.557 172.148C227.127 176.184 219.76 177.889 212.498 179.719Z" fill="#C9E4FF"/>
<path d="M348.658 202.789C343.937 204.735 338.982 206.337 334.634 209.068C336.813 212.503 339.181 215.865 340.169 219.87L348.238 215.677C348.946 215.27 350.21 214.718 350.705 214.098C349.096 210.557 348.799 206.643 348.658 202.789Z" fill="#054A8C"/>
<path d="M244.309 215.933L239.297 216.214C238.864 218.949 238.812 221.907 240.46 224.305C241.32 225.557 243.133 225.893 244.562 226.07C248.39 226.544 252.569 226.017 256.358 225.427C264.431 224.17 272.706 222.086 279.215 216.841C280.749 215.605 282.581 213.919 282.772 211.857C282.818 211.364 282.82 210.897 282.645 210.43C279.055 213.714 275.873 216.432 271.33 218.35C265.988 220.604 260.353 221.89 254.649 222.712C252.132 223.075 249.548 223.874 247.082 222.753C245.587 222.073 244.552 220.528 244.034 219.006C243.629 217.814 243.724 217.028 244.309 215.933Z" fill="#C9E4FF"/>
<path d="M348.906 202.76L348.658 202.789C348.799 206.642 349.096 210.557 350.705 214.097C351.224 213.624 351.454 213.211 352.214 213.259C354.612 213.409 357.183 215.387 358.517 217.257C360.3 219.756 361.216 222.566 362.258 225.419C362.945 227.3 363.725 229.169 364.253 231.1C364.616 232.43 364.616 234.001 365.07 235.253C365.948 232.097 366.179 228.933 366.245 225.664C366.433 216.395 361.271 209.271 353.309 205.005C352.227 204.424 349.701 203.802 349.025 202.965L348.906 202.76Z" fill="#C9E4FF"/>
<path d="M345.973 121.239C345.867 121.609 345.774 121.847 345.869 122.235C345.919 122.44 351.304 125.641 352.007 126.007C354.497 122.502 355.636 117.2 357.015 113.153L362.891 96.1475L365.8 85.7837C362.603 89.7222 360.194 94.967 358.044 99.5452L345.973 121.239Z" fill="#FDDF01"/>
<path d="M358.044 99.5452L345.974 121.239C346.347 121.456 346.18 121.343 346.572 121.654L346.871 121.894C347.233 121.763 347.799 121.609 348.081 121.321C349.115 120.265 350.067 117.506 350.776 116.122C351.658 114.399 352.808 112.859 353.706 111.157L356.643 104.906C357.187 103.811 358.012 102.928 358.513 101.797C358.794 101.165 358.894 100.716 358.882 100.032L358.044 99.5452Z" fill="#FEFDCE"/>
<path d="M269.767 51.2541L269.045 50.6242C268.08 51.2802 267.39 53.4433 266.756 54.5425C259.867 66.4872 253.062 78.7491 248.425 91.7588C247.676 93.8603 246.725 95.9678 246.284 98.1598L245.932 101.122L248.662 101.886C250.213 99.051 251.285 95.8387 252.49 92.837L257.123 82.1079C258.304 79.4841 260.167 77.0667 261.062 74.3483C262.022 72.1261 262.612 69.787 263.456 67.5222C264.147 65.6676 267.699 58.3513 267.394 56.7263C267.21 55.7492 267.251 55.3299 267.475 54.3599C268.486 53.462 269.432 52.6021 269.767 51.2541Z" fill="white"/>
<path d="M236.054 240.668L216.994 249.532L221.467 258.501L240.213 249.805L236.054 240.668Z" fill="white"/>
<path d="M181.571 211.392C179.813 212.002 178.125 212.506 176.293 212.84C177.94 214.211 179.548 215.564 181.407 216.641C188.924 220.992 197.488 221.935 205.978 221.174C210.196 220.796 214.779 220.174 218.854 218.995C222.958 217.808 226.884 216.117 230.934 214.796L230.496 207.108C229.813 209.188 229.628 211.657 229.205 213.823L226.38 214.939C224.295 215.589 221.912 215.614 219.749 215.855C214 216.494 208.026 217.038 202.226 216.481C200.165 216.283 198.143 215.775 196.096 215.472C190.882 214.698 186.323 213.806 181.571 211.392Z" fill="#C9E4FF"/>
<path d="M332.359 182.993C327.85 180.787 324.123 178.33 320.928 174.431C320.16 177.155 320.05 179.957 319.964 182.767C319.836 186.965 319.903 190.992 320.557 195.156L321.372 199.517C321.468 199.968 321.761 200.766 321.738 201.207C321.695 202.042 320.927 203.11 320.546 203.842C321.165 204.62 321.713 205.236 322.517 205.826C323.337 205.835 325.512 207.338 326.374 207.793C326.637 206.719 326.518 205.408 326.536 204.292C326.568 202.35 326.633 200.396 326.969 198.478C327.381 196.126 328.298 193.913 329.14 191.689L332.359 182.993Z" fill="#F50056"/>
<path d="M248.621 122.057C245.423 119.258 240.922 118.097 236.735 118.343C234.587 118.47 232.651 119.261 230.688 120.084C226.674 121.768 222.291 124.036 219.166 127.105C218.943 127.925 219.402 128.417 219.81 129.126C221.498 132.06 224.149 134.462 226.741 136.592C228.857 135.745 230.831 134.208 232.525 132.694L232.814 132.431C234.643 130.798 234.051 128.114 236.225 126.52C237.752 124.984 238.959 124.191 240.923 123.262C242.14 122.902 243.248 122.692 244.517 122.638C245.525 122.595 247.85 123.093 248.517 122.45L248.621 122.057Z" fill="white"/>
<path d="M219.212 141.451C216.659 138.597 214.551 135.644 212.628 132.334C207.886 136.727 203.409 140.211 197.049 141.931C195.097 142.459 193.052 142.714 191.126 143.297C195.381 146.431 198.916 149.774 202.541 153.605L208.162 151.631C213.029 149.626 217.168 146.389 219.212 141.451Z" fill="white"/>
<path d="M278.297 147.454C273.277 154.052 269.19 160.331 266.752 168.357C266.016 170.779 265.307 173.837 265.621 176.374C265.781 177.655 266.619 179.06 267.179 180.218C269.974 179.793 272.742 179.534 275.513 178.951C276.909 178.657 278.143 178.458 279.334 177.628L279.702 177.379L278.391 154.018L278.297 147.454Z" fill="#FF528F"/>
<path d="M119.096 335.443C116.188 339.359 112.765 342.201 108.848 345.057C107.062 346.359 105.076 347.605 103.489 349.15C100.876 351.696 99.3275 354.821 99.2824 358.489C99.2645 359.917 99.433 361.724 100.538 362.769C101.294 363.483 103.029 363.246 104.024 363.221C105.824 362.879 107.326 361.878 108.207 360.239C108.708 359.306 109.078 358.162 109.78 357.357C110.339 356.714 111.433 356.186 112.148 355.688C113.373 354.836 114.522 353.867 115.651 352.894C119.384 349.68 122.207 346.158 125.303 342.369C124.12 339.941 121.059 337.293 119.096 335.443Z" fill="#054A8C"/>
<path d="M244.308 215.934C243.723 217.028 243.629 217.814 244.034 219.006C244.552 220.529 245.586 222.073 247.082 222.753C249.548 223.874 252.132 223.075 254.649 222.712C260.353 221.891 265.987 220.605 271.33 218.35C275.873 216.432 279.055 213.714 282.644 210.43C282.515 210.103 282.396 209.798 282.196 209.505C280.753 207.395 278.327 206.26 275.899 205.716C273.353 205.145 270.398 205.282 267.87 205.884C267.35 206.007 266.48 206.127 266.064 206.472C264.921 207.418 264.005 208.587 262.776 209.468C257.683 213.119 250.441 214.97 244.308 215.934Z" fill="white"/>
<path d="M259.444 234.712C253.751 235.091 248.076 235.464 242.381 235.004C241.687 234.948 241.384 234.762 240.833 235.245C240.523 236.009 240.143 236.796 240.479 237.616C241.198 239.369 242.193 241.053 243.019 242.763C245.608 248.125 248.349 253.525 250.502 259.079C252 262.943 253.146 266.14 252.992 270.324C254.453 269.423 255.715 268.939 257.415 268.628C256.884 266.943 257.775 263.816 257.899 261.984L258.561 250.39L255.464 252.448L255.337 252.208C256.42 251.488 257.178 250.729 258.383 250.116L259.117 242.859C259.674 240.145 259.547 237.462 259.444 234.712Z" fill="#FF528F"/>
<path d="M322.516 206.001C322.038 206.971 321.53 207.327 320.603 207.857C324.874 210.505 327.837 213.422 330.244 217.882C330.858 219.019 331.587 220.304 331.9 221.561C332.685 224.709 332.639 227.98 331.881 231.12C330.956 234.953 328.999 237.965 327.379 241.479C323.816 249.207 320.671 257.283 316.058 264.489C314.6 266.766 312.875 268.95 310.51 270.33C314.432 272.913 319.481 273.525 324.067 273.726C324.636 272.876 324.915 271.65 325.209 270.669L327.091 263.887L333.295 240.742C333.905 238.15 334.666 235.536 335.108 232.911C335.574 230.147 336.005 227.076 335.56 224.302C334.56 218.067 331.358 214.348 326.983 210.081C325.48 208.616 324.236 207.229 322.516 206.001Z" fill="#C9E4FF"/>
<path d="M238.339 161.193C236.045 159.372 233.878 158.057 230.819 158.361C228.811 158.56 226.971 159.602 225.131 160.378L219.559 162.43C215.93 163.661 212.345 164.516 208.641 165.452C208.69 170.33 210.052 175.48 212.498 179.719C219.76 177.889 227.127 176.184 233.557 172.148C235.396 170.995 238.162 169.371 239.039 167.278C239.902 165.22 239.198 163.096 238.339 161.193Z" fill="white"/>
<path d="M168.18 158.652C166.862 159.717 165.451 160.096 164.079 160.981C162.864 161.765 161.849 162.958 161.131 164.196C160.291 166.206 159.439 168.282 160.311 170.449L160.889 171.725L163.595 173.946L191.217 178.624C191.204 176.667 190.898 174.783 190.785 172.84C190.636 170.3 190.722 167.724 190.913 165.189C184.051 161.282 176.324 156.54 168.18 158.652Z" fill="white"/>
<path d="M378.442 217.622L377.845 213.002C377.24 210.333 376.459 207.929 375.01 205.588C373.058 202.437 370.112 199.754 366.516 198.658C361.028 196.986 353.688 200.272 348.906 202.761L349.025 202.965C349.701 203.802 352.226 204.425 353.309 205.005C361.271 209.271 366.433 216.395 366.245 225.664C366.179 228.934 365.948 232.097 365.07 235.254L365.107 235.45L365.901 235.752C367.754 235.372 369.418 234.624 370.893 233.441C376.04 229.313 377.711 223.91 378.442 217.622Z" fill="white"/>
<path d="M147.655 167.924C147.125 168.085 146.707 168.295 146.228 168.572C146.067 169.004 146.033 169.27 146.14 169.725C147.632 176.116 151.33 182.264 154.826 187.766C156.877 190.995 159.172 194.694 162.455 196.785C167.227 195.966 172.294 193.393 176.385 190.847L168.743 186.939C171.169 187.222 173.485 187.978 175.886 188.332C177.131 188.516 178.384 188.42 179.599 188.793C181.561 189.397 183.885 189.512 185.923 189.84C188.653 190.347 191.458 190.036 194.222 190.378L191.427 180.811C188.036 181.003 184.542 180.433 181.174 180.054L166.122 178.267C163.856 177.967 161.507 177.969 159.268 177.615C157.461 177.33 155.096 175.103 154.106 173.612L153.89 173.277C152.738 171.525 152.293 169.908 151.988 167.876C150.547 167.75 149.096 167.858 147.655 167.924Z" fill="#C9E4FF"/>
<path d="M191.863 206.329L181.57 211.392C186.322 213.806 190.882 214.698 196.095 215.472C198.142 215.775 200.164 216.283 202.225 216.481C208.025 217.039 213.999 216.494 219.748 215.855C221.911 215.614 224.294 215.589 226.379 214.939L229.204 213.823C229.627 211.657 229.812 209.188 230.495 207.108L230.954 199.015C229.884 198.822 228.716 198.924 227.63 198.936C225.559 199.175 223.492 199.109 221.421 199.281C216.444 199.696 211.478 200.488 206.605 201.574L191.863 206.329Z" fill="white"/>
<path d="M252.992 270.324C252.803 270.92 252.599 271.505 252.309 272.062C250.144 276.21 245.674 277.666 241.684 279.54C239.374 280.624 236.923 281.877 234.47 282.593L234.11 282.694C233.003 283.012 231.869 283.349 230.703 283.22C228.44 282.97 226.33 281.058 224.908 279.42C225.597 285.914 226.018 292.698 225.775 299.226C225.676 301.875 225.164 304.511 225.095 307.137C230.698 304.952 235.964 302.367 241.34 299.703C245.851 297.468 250.476 295.197 254.541 292.203C256.565 286.638 256.721 279.949 257.163 274.108C257.287 272.473 257.939 270.174 257.415 268.628C255.715 268.939 254.453 269.423 252.992 270.324Z" fill="#F50056"/>
<path d="M92.376 284.025C91.653 284.411 91.5286 284.362 91.2991 285.18C91.1506 285.706 91.2809 286.217 91.1151 286.757C89.6446 291.549 87.0815 296.039 85.3758 300.768C84.3876 301.279 83.4398 301.712 82.3809 302.055L80.4915 308.192L73.8048 325.133C73.4313 325.522 73.1468 326.242 72.8693 326.727L70.5555 330.829C67.6565 335.973 63.926 340.332 58.8547 343.458C57.2168 344.468 55.3117 345.195 53.5493 345.968C60.6621 346.713 69.5202 347.139 75.7046 342.709C77.3149 341.555 78.7112 340.36 80.0697 338.91C88.9289 329.455 92.3483 316.14 93.3095 303.569C93.5225 300.787 93.82 297.98 93.7315 295.188C93.612 291.429 92.4996 287.828 92.376 284.025Z" fill="#F50056"/>
<path d="M82.3809 302.055L80.4916 308.192L73.8048 325.133C76.2429 323.527 77.3056 320.198 78.5296 317.65C79.5218 315.584 80.5693 313.623 81.3796 311.471L84.5555 303.73C85.0122 302.74 85.1867 301.834 85.3759 300.768C84.3877 301.279 83.4399 301.712 82.3809 302.055Z" fill="#FD454E"/>
<path d="M190.211 128.623C192.268 125.366 194.021 121.96 195.134 118.252C197.297 111.045 196.819 102.997 195.204 95.7284C191.605 79.5363 181.871 66.1681 167.925 57.2967C155.804 49.5865 142.919 46.763 128.791 49.9595C113.853 53.3399 99.1238 62.5417 90.8889 75.628L89.0116 78.8373C91.6356 76.2781 93.8686 73.731 96.7959 71.4453C104.692 65.2794 115.239 59.88 124.942 57.2611C129.675 55.9836 134.266 55.3825 139.115 54.8646C140.614 54.7049 142.157 54.3225 143.662 54.3135C145.778 54.3005 147.981 54.5856 150.092 54.7494C151.759 54.8787 153.459 54.8846 155.117 55.0894C159.627 55.6465 165.163 57.5277 169.052 59.9436C172.67 62.1905 176.06 65.2439 179.007 68.2952C187.583 77.174 194.738 90.8921 194.548 103.429C194.507 106.124 193.803 108.617 192.957 111.154C190.433 118.731 185.652 126.553 179.883 132.086C175.853 135.951 171.187 139.156 166.443 142.075C159.378 146.421 151.755 150.231 143.891 152.87C141.986 153.51 140.009 154.328 138.016 154.606L137.685 154.926C136.865 155.695 136.208 155.88 135.152 156.154C134.739 156.261 134.893 156.194 134.561 156.492C135.06 156.665 135.459 156.714 135.98 156.771C136.644 156.676 137.117 156.58 137.695 156.228C138.872 155.51 140.6 155.586 141.935 155.155L154.786 150.671C157.97 149.462 161.293 148.164 164.318 146.603C169.173 144.096 174.005 140.854 178.657 137.956L180.541 136.89L181.844 136.252C182.845 135.759 184.272 135.538 185.37 135.173C187.178 133.286 189.025 130.954 190.211 128.623Z" fill="white"/>
<path d="M190.211 128.623C189.24 129.291 188.614 130.069 187.743 130.819L180.541 136.89L181.844 136.252C182.845 135.759 184.272 135.538 185.37 135.173C187.179 133.286 189.025 130.954 190.211 128.623Z" fill="#C9E4FF"/>
<path d="M239.814 211.593C244.924 211.351 250.209 210.716 255.031 208.874C257.374 207.979 259.537 206.733 261.684 205.453C262.136 204.535 262.48 203.65 262.68 202.642C263.121 200.418 262.995 197.989 263.017 195.73C263.072 190.009 263.391 183.663 259.977 178.717C257.84 175.621 254.116 172.448 250.354 171.732C249.223 171.517 248.391 171.368 247.42 172.04C247.044 173.945 245.12 175.424 244.157 177.16C241.98 181.087 240 185.672 239.35 190.147C239.005 192.52 239.042 194.996 239.004 197.39C238.971 199.463 238.852 201.527 239.086 203.591L239.119 205.129L239.07 206.55C239.004 208.428 239.059 209.832 239.814 211.593Z" fill="white"/>
<path d="M291.081 243.136C287.501 243.789 282.363 243.602 278.915 242.449C278.042 242.157 276.224 241.014 275.438 240.997C275.257 240.993 274.593 241.328 274.416 241.398C273.145 241.903 271.89 242.424 270.666 243.037L264.781 246.234C263.26 247.149 260.001 250.155 258.384 250.116C257.178 250.729 256.42 251.488 255.337 252.208L255.465 252.448L258.561 250.39L257.9 261.984C257.775 263.816 256.885 266.943 257.415 268.628C257.939 270.174 257.287 272.474 257.164 274.108C256.722 279.949 256.565 286.638 254.541 292.203L259.945 289.157C268.824 283.59 277.803 276.624 283.794 267.94C282.384 266.687 280.931 265.493 279.796 263.975C276.501 259.569 275.15 252.897 275.993 247.509C277.085 248.409 277.779 249.879 278.429 251.117C282.534 248.027 286.427 245.385 291.081 243.136Z" fill="#C9E4FF"/>
<path d="M315.072 159.372C316.338 164.771 317.752 169.801 320.928 174.431C324.123 178.33 327.851 180.787 332.359 182.993C336.144 184.009 340.097 183.761 343.981 183.835L360.31 184.152C365.121 184.098 370.247 183.584 375.016 184.076C378.212 184.406 381.784 185.206 384.81 186.256C390.025 188.066 394.464 190.534 400.149 190.303C398.283 187.671 395.872 185.618 393.89 183.079C393.465 182.874 393.572 182.991 393.322 182.659C393.178 182.467 393.008 182.142 392.814 181.993L392.429 181.759C392.145 181.15 392.18 180.953 392.225 180.272C386.723 178.692 381.669 176.188 376.884 173.067L371.373 169.399C371.013 169.167 370.045 168.373 369.663 168.302C369.121 168.202 360.316 171.413 359.066 171.719C353.357 173.121 347.541 173.596 341.671 173.051C333.932 172.333 327.134 169.332 320.959 164.741C319.433 163.607 317.864 162.516 316.64 161.043L315.072 159.372Z" fill="#C9E4FF"/>
<path d="M128.785 62.1729C125.937 62.4404 122.961 63.5857 120.274 64.556C111.935 67.5671 104.562 71.2101 97.6055 76.7859C95.944 78.1182 94.1528 79.4464 92.7841 81.0852C91.5423 82.5724 90.176 84.1202 89.1449 85.7569C88.1487 87.3392 87.3942 89.0484 86.3003 90.5737C91.4335 90.3749 96.5109 89.3583 101.691 89.199C104.628 89.1088 107.998 89.0793 110.9 89.4012C112.622 89.5924 114.269 90.0075 116.011 90.1295C117.241 90.2157 118.351 90.5591 119.546 90.8305L129.662 93.649C130.662 92.3065 133.617 91.9045 135.204 91.3864C137.098 90.7675 138.969 90.0878 140.691 89.0721C142.456 88.0304 143.852 86.608 145.165 85.0511C147.391 87.4532 151.078 89.8456 154.446 89.974C156.554 90.0541 158.959 89.27 160.487 87.7719C162.315 85.9798 163.073 83.4789 163.051 80.9744C163.011 76.6229 160.891 73.437 157.891 70.4898C157.896 70.1161 158.007 69.7631 158.091 69.4004C159.93 67.4349 161.582 64.5029 162.603 62.0162C158.721 60.7406 155.45 60.2747 151.383 60.0004C143.801 59.4882 136.12 59.9881 128.785 62.1729Z" fill="#054A8C"/>
<path d="M158.091 69.4004L157.451 68.3432C156.886 67.6115 155.762 67.086 154.958 66.6479C151.276 64.6406 147.858 63.7136 143.702 63.1621C140.091 62.6828 136.583 63.8043 133.16 64.7644C132.085 65.0655 130.822 65.1474 129.827 65.6588C128.492 66.3447 127.166 67.5926 125.975 68.5141C125.032 69.3906 122.729 71.1569 122.448 72.3688L123.054 72.6982C125.599 71.532 128.168 70.2418 130.827 69.3604C135.25 67.8947 141.054 67.2853 145.676 67.9167C147.245 68.1307 148.856 68.4208 150.384 68.8366C151.714 69.1983 156.376 71.3911 157.461 70.9934C157.668 70.9173 157.748 70.6574 157.891 70.4898C157.895 70.1161 158.007 69.7631 158.091 69.4004Z" fill="white"/>
<path d="M157.892 70.4899C157.749 70.6574 157.669 70.9174 157.462 70.9935C156.376 71.3911 151.715 69.1984 150.384 68.8367C148.856 68.4209 147.245 68.1308 145.677 67.9168C141.054 67.2854 135.25 67.8947 130.827 69.3605C128.168 70.2419 125.599 71.5321 123.054 72.6983C123.984 73.8208 125.615 74.5881 126.841 75.3744C128.244 76.2732 129.547 77.5943 131.056 78.2748C131.995 78.6983 132.998 78.7925 133.954 79.1316C137.843 80.5116 142.297 81.9982 145.166 85.0511C147.391 87.4533 151.078 89.8457 154.446 89.9741C156.554 90.0542 158.959 89.2701 160.487 87.7719C162.315 85.9799 163.073 83.4789 163.051 80.9745C163.011 76.623 160.891 73.4371 157.892 70.4899Z" fill="#0073E2"/>
<path d="M129.662 93.6489C130.81 94.7826 132.16 94.9773 133.47 95.7894C135.867 97.2741 138.24 98.8214 140.481 100.534C152.833 109.977 160.915 122.25 166.873 136.43C170.525 133.969 174.133 131.437 177.295 128.351C181.696 124.057 185.004 118.992 187.552 113.431C189.789 108.548 190.054 103.246 189.722 97.9703C189.588 95.8419 189.509 93.7902 188.748 91.7661C186.472 85.7062 183.53 80.5584 179.739 75.3394C176.587 70.9992 172.602 67.8263 168.207 64.859C166.456 63.6771 164.741 62.3344 162.603 62.0161C161.582 64.5028 159.93 67.4348 158.091 69.4003C158.007 69.763 157.896 70.116 157.892 70.4897C160.891 73.4369 163.011 76.6228 163.051 80.9743C163.073 83.4788 162.315 85.9797 160.487 87.7718C158.959 89.2699 156.554 90.054 154.446 89.9739C151.078 89.8455 147.391 87.4531 145.166 85.051C143.852 86.6079 142.456 88.0303 140.691 89.072C138.969 90.0877 137.098 90.7674 135.204 91.3863C133.617 91.9044 130.662 92.3064 129.662 93.6489Z" fill="#054A8C"/>
<path d="M216.243 274.234C214.028 274.533 211.972 275.233 209.796 275.683C204.763 276.725 199.092 277.169 193.996 276.497L193.644 276.455C190.989 276.117 187.691 275.075 185.272 273.935C185.35 275.707 186.236 277.893 186.617 279.684C187.242 282.621 187.539 285.589 187.737 288.583C188.985 307.377 179.542 324.953 167.169 338.486C160.38 345.913 151.971 350.931 143.315 355.861C136.894 359.517 130.344 363.047 124.815 368.027C122.106 370.467 120.573 373.402 118.908 376.577C115.432 383.207 112.063 388.828 105.036 392.096C106.285 393.304 107.477 394.439 109.071 395.195C111.099 396.156 113.753 396.784 115.904 395.908C118.605 394.808 119.912 392.507 121.377 390.162L126.645 381.442C128.425 378.781 130.652 376.048 132.915 373.779C137.54 369.144 143.813 365.924 149.386 362.561C164.188 353.631 178.24 341.987 184.55 325.32C187.193 318.341 188.624 311.554 189.654 304.189C190.108 300.937 189.769 297.077 190.984 294.028L191.467 294.217C192.114 295.547 192.084 296.914 192.401 298.331C193.61 303.742 194.442 309.096 195.126 314.595C205.186 312.626 215.694 311.507 225.094 307.137C225.163 304.511 225.676 301.874 225.775 299.226C226.017 292.698 225.597 285.914 224.908 279.42L223.954 276.97C221.311 275.97 218.748 275.66 216.243 274.234Z" fill="#C9E4FF"/>
<path d="M223.954 276.97C223.172 274.202 221.869 271.513 220.732 268.871L213.209 251.967C212.94 251.343 211.993 248.19 211.627 247.861C211.179 247.459 208.816 246.983 208.052 246.713C202.335 244.697 198.875 241.067 195.116 236.52C192.657 237.061 190.261 237.604 187.731 237.65C178.039 237.825 168.18 232.676 160.346 227.366C158.766 226.294 156.095 223.828 154.315 223.514C153.79 223.421 152.885 223.619 152.358 223.705C150.659 223.983 149.011 224.485 147.328 224.834C145.78 225.154 144.189 225.297 142.652 225.663C138.643 226.617 134.312 228.306 130.651 230.18C126.24 232.438 122.175 235.456 118.214 238.412C114.076 241.498 109.812 244.948 106.779 249.177C99.6272 259.148 96.8165 271.739 98.1506 283.904C98.4763 286.87 99.5003 289.861 99.9774 292.846C104.363 287.605 109.968 283.07 115.16 278.647L140.593 258.516C147.119 253.768 153.729 249.049 161.057 245.608C166.251 243.168 172.162 241.568 177.867 241.057C180.786 240.797 183.672 240.837 186.596 240.763C189.752 240.684 194.157 240.191 197.157 241.126C198.694 242.834 199.955 244.758 201.261 246.643C205.055 252.114 208.123 257.866 210.971 263.877C212.529 267.164 213.964 271.423 216.243 274.234C218.748 275.66 221.311 275.97 223.954 276.97Z" fill="#FF528F"/>
<path d="M136.739 229.087C131.717 231.198 126.704 234.089 122.398 237.446C120.645 238.814 119.034 240.493 117.356 241.971C115.713 243.417 113.616 244.956 112.683 246.982C112.529 247.316 112.707 247.495 112.829 247.825L113.459 248.002C115.392 247.372 116.883 246.142 118.523 244.977C123.18 241.736 127.889 238.334 133.028 235.877L141.015 232.241C142.24 231.677 143.918 231.123 144.83 230.133L144.786 229.498C144.332 228.801 143.911 228.283 143.124 227.952C141.193 227.139 138.567 228.4 136.739 229.087Z" fill="white"/>
<path d="M279.701 177.379L279.333 177.628C278.142 178.458 276.908 178.657 275.512 178.951C272.741 179.534 269.973 179.793 267.178 180.218C267.841 183.403 268.246 186.502 268.225 189.759C268.201 193.454 267.739 197.097 267.957 200.802C269.772 200.954 271.508 200.736 273.314 200.759C277.876 200.817 282.38 202.013 285.353 205.691C287.809 208.73 288.881 213.535 288.407 217.414L288.37 217.685L288.341 217.995C286.097 222.342 283.988 225.004 280.122 228C275.833 231.325 269.91 233.049 264.652 233.984C262.977 234.282 261.138 234.654 259.444 234.712C259.546 237.462 259.674 240.145 259.117 242.858L258.383 250.116C260 250.155 263.259 247.149 264.78 246.234L270.665 243.036C271.889 242.424 273.144 241.903 274.415 241.398C274.593 241.328 275.257 240.993 275.438 240.997C276.223 241.014 278.042 242.157 278.914 242.449C282.363 243.602 287.5 243.789 291.08 243.136C294.083 242.113 303.748 238.225 306.328 239.496C307.824 240.234 308.769 241.86 309.233 243.41C310.004 245.987 310.105 249.002 310.223 251.684C310.36 254.767 310.53 258.11 310.107 261.178C309.984 262.075 307.715 267.811 307.819 268.072C308.055 268.665 309.954 269.989 310.51 270.33C312.875 268.95 314.6 266.766 316.058 264.489C320.671 257.283 323.816 249.207 327.379 241.479C328.999 237.965 330.956 234.953 331.881 231.12C332.639 227.98 332.685 224.709 331.9 221.561C331.587 220.304 330.858 219.019 330.244 217.882C327.837 213.422 324.874 210.505 320.603 207.857C316.614 205.665 312.312 204.058 307.961 202.746C303.561 201.419 299.149 200.39 295.026 198.298C286.721 194.082 282.432 185.876 279.701 177.379Z" fill="white"/>
<path d="M288.342 217.994C286.097 222.342 283.988 225.003 280.123 228C275.834 231.325 269.91 233.049 264.653 233.983C262.977 234.282 261.139 234.654 259.444 234.712C259.547 237.462 259.674 240.145 259.117 242.858C264.339 240.841 269.643 238.549 274.108 235.09C275.729 233.835 277.163 232.294 278.711 230.943C281.051 228.903 283.396 226.992 285.367 224.571C286.733 222.892 288.569 220.232 288.342 217.994Z" fill="#C9E4FF"/>
<path d="M342.254 129.098C340.551 127.122 338.189 126.012 335.913 124.854C336.042 124.022 336.301 123.031 336.191 122.202C332.725 120.903 328.279 120.689 324.603 120.917C323.617 120.979 322.663 121.322 321.683 121.471C314.327 122.585 307.732 125.005 301.023 128.175C296.718 130.21 292.723 132.178 289.585 135.843C285.559 139.111 280.722 142.79 278.296 147.454L278.39 154.018L279.701 177.379C282.432 185.876 286.721 194.082 295.026 198.298C299.149 200.39 303.561 201.419 307.961 202.745C312.312 204.058 316.614 205.665 320.603 207.857C321.53 207.327 322.038 206.971 322.517 206.001L322.517 205.826C321.713 205.236 321.165 204.62 320.546 203.842C320.927 203.11 321.695 202.042 321.738 201.207C321.761 200.766 321.468 199.968 321.372 199.517L320.557 195.156C319.903 190.992 319.836 186.965 319.964 182.767C320.05 179.957 320.16 177.155 320.928 174.431C317.751 169.801 316.338 164.771 315.071 159.372L314.658 158.003C311.865 147.925 313.031 135.197 318.502 126.165C319.412 124.662 321.506 122.326 323.224 121.914L323.575 121.839C325.623 121.391 328.939 121.221 330.969 121.828C331.954 122.123 332.878 122.421 333.802 122.877L333.714 123.181L333.176 123.21C332.467 122.775 331.911 122.468 331.094 122.293C328.992 124.426 325.82 124.61 324.548 127.803C323.986 129.213 323.903 130.957 324.529 132.357C325.5 134.523 327.505 136.129 329.682 136.977C335.927 139.412 344.663 137.436 350.574 134.84L350.712 134.032C348.562 132.249 345.217 130.444 342.652 129.292L342.254 129.098Z" fill="#FF528F"/>
<path d="M338.819 127.382C337.496 128.281 335.727 128.207 334.232 129.231C336.702 129.697 339.269 129.911 341.68 130.615C342.1 130.409 342.328 130.197 342.643 129.852L342.652 129.292L342.254 129.098C341.095 128.873 339.953 127.841 338.819 127.382Z" fill="#E8CFD5"/>
<path d="M338.819 127.382C335.607 125.533 333.537 125.481 330.004 126.45L327.769 127.211C329.917 128.09 331.947 128.803 334.232 129.231C335.728 128.207 337.497 128.281 338.819 127.382Z" fill="white"/>
<path d="M289.585 135.843C285.56 139.111 280.722 142.79 278.297 147.454L278.391 154.018L279.702 177.379C282.433 185.876 286.722 194.082 295.027 198.298C299.149 200.39 303.562 201.419 307.962 202.746C312.313 204.058 316.615 205.665 320.604 207.857C321.531 207.327 322.038 206.971 322.517 206.001L322.517 205.826C321.713 205.236 321.166 204.62 320.546 203.842C318.445 201.739 316.175 199.705 314.21 197.481C307.933 190.379 302.702 182.517 298.197 174.203C294.842 168.012 291.859 161.949 290.109 155.077C289.605 152.814 289.02 150.448 288.831 148.135C288.512 144.214 289.146 139.758 289.585 135.843Z" fill="#5FB0FF"/>
<path d="M350.573 134.84C344.663 137.436 335.927 139.413 329.682 136.977C327.505 136.129 325.5 134.523 324.529 132.357C323.903 130.957 323.986 129.213 324.548 127.803C325.82 124.61 328.991 124.426 331.094 122.293C331.911 122.468 332.467 122.776 333.176 123.21L333.714 123.182L333.802 122.878C332.878 122.421 331.953 122.123 330.968 121.828C328.939 121.221 325.623 121.391 323.575 121.839L323.224 121.915C321.506 122.327 319.412 124.662 318.502 126.165C313.031 135.198 311.865 147.925 314.658 158.003L315.071 159.373L316.639 161.043C317.864 162.516 319.433 163.607 320.958 164.741C327.133 169.332 333.931 172.333 341.67 173.052C347.54 173.596 353.356 173.121 359.066 171.72C360.315 171.413 369.12 168.202 369.662 168.302C370.044 168.373 371.012 169.167 371.373 169.4L376.883 173.067C381.668 176.188 386.723 178.692 392.224 180.272C397.878 182.131 405.103 184.116 410.803 181.25C412.615 180.339 413.78 179.128 414.793 177.405C414.527 176.996 414.507 175.521 414.416 174.969C414.234 173.854 413.932 172.797 413.579 171.726C412.114 167.274 409.902 163.157 406.071 160.332C402.961 158.039 398.067 157.656 394.363 156.695C389.79 155.51 385.025 154.061 380.956 151.608C372.04 146.232 367.991 136.151 358.573 131.428C356.071 132.991 353.288 133.748 350.573 134.84Z" fill="white"/>
<path d="M400.665 169.1C400.283 169.213 399.984 169.318 399.697 169.609C399.103 170.215 398.885 170.823 398.952 171.663C399.031 172.655 399.434 173.249 400.197 173.853C401.749 175.08 403.354 175.279 405.258 175.072C405.93 174.801 406.458 174.526 407.058 174.12C407.234 173.638 407.418 173.236 407.309 172.711C407.146 171.921 406.581 171.414 405.968 170.957C404.329 169.736 402.773 168.784 400.665 169.1Z" fill="black"/>
<path d="M354.046 139.453C353.217 139.778 352.434 140.079 351.724 140.626L351.451 140.841C350.573 141.521 349.568 142.219 348.944 143.157C347.68 145.056 347.43 147.84 347.938 150.02C348.676 153.183 350.437 155.389 353.198 157.043C355.773 158.585 358.016 158.645 360.819 157.941C362.697 157.209 364.291 155.839 365.349 154.13C366.688 151.968 367.263 148.591 366.539 146.105C365.895 143.897 363.93 141.388 361.898 140.269C359.336 138.858 356.818 138.675 354.046 139.453Z" fill="black"/>
<path d="M351.274 144.388L350.823 144.547C350.203 144.829 349.562 145.447 349.45 146.153C349.348 146.803 349.523 147.404 349.976 147.888C350.49 148.438 350.703 148.407 351.413 148.46C352.022 148.146 352.523 147.903 352.837 147.245C353.239 146.402 353.117 145.877 352.854 145.031C352.204 144.488 352.121 144.478 351.274 144.388Z" fill="white"/>
<path d="M358.893 141.668C358.291 142.023 357.87 142.922 357.725 143.59C357.545 144.419 357.913 144.981 358.357 145.64C359.13 146.173 359.521 146.266 360.454 146.261L361.154 145.986C361.717 145.673 362.129 145.155 362.255 144.514C362.355 144.008 362.285 143.709 362.024 143.283C361.365 142.209 360.036 141.925 358.893 141.668Z" fill="white"/>
<path d="M216.243 274.234C213.964 271.423 212.529 267.164 210.971 263.877C208.123 257.866 205.055 252.114 201.261 246.643C199.955 244.758 198.694 242.834 197.157 241.126C194.157 240.191 189.752 240.684 186.597 240.763C183.672 240.837 180.786 240.797 177.867 241.057C172.162 241.568 166.251 243.168 161.057 245.608C153.729 249.05 147.119 253.768 140.593 258.516L115.16 278.647C109.968 283.07 104.363 287.605 99.9774 292.846C101.157 296.176 102.362 299.373 104.042 302.496C108.045 309.935 113.963 316.914 119.941 322.859C123.656 326.553 128.917 330.322 130.967 335.209C132.38 338.576 131.534 342.829 129.999 346.015C127.768 350.643 122.944 354.883 119.238 358.399C117.503 360.044 115.647 361.64 114.315 363.645C111.79 367.447 110.686 372.052 109.116 376.29C107.556 380.5 105.05 384.648 102.093 388.014C102.908 389.454 103.712 391.054 105.036 392.096C112.063 388.828 115.432 383.207 118.908 376.577C120.573 373.402 122.106 370.467 124.815 368.027C130.344 363.047 136.894 359.517 143.315 355.861C151.971 350.931 160.38 345.913 167.17 338.486C179.542 324.953 188.985 307.377 187.737 288.583C187.539 285.589 187.243 282.621 186.617 279.684C186.236 277.893 185.35 275.707 185.272 273.935C187.692 275.075 190.989 276.117 193.644 276.455L193.996 276.497C199.092 277.169 204.763 276.725 209.796 275.683C211.972 275.233 214.028 274.533 216.243 274.234Z" fill="white"/>
<path d="M92.5 205L20.5 99.5L-119.5 132.5L-41.5 330L11 341L72.5 286L92.5 205Z" fill="white"/>
</g>
</g>
<defs>
<linearGradient id="paint0_linear_4793_727" x1="28.1949" y1="244.126" x2="26.7653" y2="256.138" gradientUnits="userSpaceOnUse">
<stop stop-color="#FEBEFA"/>
<stop offset="1" stop-color="#FFEDFF"/>
</linearGradient>
<clipPath id="clip0_4793_727">
<rect width="451" height="474" fill="white" transform="matrix(-1 0 0 1 451 0)"/>
</clipPath>
<clipPath id="clip1_4793_727">
<rect width="512" height="512" fill="white" transform="matrix(-0.906553 0.422093 0.422093 0.906553 301.889 -135)"/>
</clipPath>
</defs>
</svg>
